<svg width="347" height="51" viewBox="0 0 347 51" fill="none" xmlns="http://www.w3.org/2000/svg">
<path d="M2.24609 24.4531C2.24609 22.3047 2.64974 20.2995 3.45703 18.4375C4.26432 16.5625 5.44271 14.9349 6.99219 13.5547C8.54167 12.1745 10.4427 11.0872 12.6953 10.293C14.9609 9.4987 17.5521 9.10156 20.4688 9.10156C21.5234 9.10156 22.5781 9.16016 23.6328 9.27734C24.7005 9.38151 25.7487 9.55078 26.7773 9.78516C27.819 10.0195 28.8281 10.319 29.8047 10.6836C30.7943 11.0352 31.7318 11.4583 32.6172 11.9531L29.7656 16.6406C29.2318 16.3281 28.6263 16.0482 27.9492 15.8008C27.2721 15.5404 26.543 15.3255 25.7617 15.1562C24.9935 14.974 24.1927 14.8372 23.3594 14.7461C22.5391 14.6549 21.7122 14.6094 20.8789 14.6094C18.9518 14.6094 17.2331 14.8568 15.7227 15.3516C14.2122 15.8333 12.9362 16.5169 11.8945 17.4023C10.8529 18.2747 10.0586 19.3229 9.51172 20.5469C8.96484 21.7708 8.69141 23.112 8.69141 24.5703C8.69141 26.0807 8.97786 27.4674 9.55078 28.7305C10.1237 29.9935 10.9375 31.0807 11.9922 31.9922C13.0469 32.9036 14.3229 33.6198 15.8203 34.1406C17.3177 34.6484 18.9909 34.9023 20.8398 34.9023C22.3112 34.9023 23.6589 34.7396 24.8828 34.4141C26.1068 34.0755 27.1745 33.6003 28.0859 32.9883C28.9974 32.3763 29.7396 31.6406 30.3125 30.7812C30.8854 29.9089 31.263 28.9323 31.4453 27.8516H20.7812V22.7539H37.0117V22.7734L37.0312 22.7539C37.3568 24.3164 37.4544 25.8398 37.3242 27.3242C37.207 28.7956 36.8685 30.1888 36.3086 31.5039C35.7617 32.806 35.0065 34.0039 34.043 35.0977C33.0794 36.1914 31.9271 37.1354 30.5859 37.9297C29.2448 38.7109 27.7214 39.3229 26.0156 39.7656C24.3099 40.1953 22.4414 40.4102 20.4102 40.4102C17.5716 40.4102 15.026 39.9935 12.7734 39.1602C10.5339 38.3268 8.63281 37.1875 7.07031 35.7422C5.50781 34.2969 4.3099 32.6042 3.47656 30.6641C2.65625 28.724 2.24609 26.6536 2.24609 24.4531ZM43.6133 16.9531H49.3945V20.2734C50.6706 19.3229 52.0182 18.5026 53.4375 17.8125C54.8568 17.1224 56.2695 16.5951 57.6758 16.2305L59.375 21.5234C57.1484 21.7448 55.1888 22.2461 53.4961 23.0273C51.8164 23.7956 50.4492 24.8828 49.3945 26.2891V40H43.6133V16.9531ZM62.5977 28.3984C62.5977 26.8359 62.9167 25.3451 63.5547 23.9258C64.1927 22.4935 65.1107 21.2305 66.3086 20.1367C67.5065 19.043 68.9714 18.1706 70.7031 17.5195C72.4479 16.8685 74.4271 16.543 76.6406 16.543C78.8411 16.543 80.8203 16.875 82.5781 17.5391C84.349 18.1901 85.8464 19.0885 87.0703 20.2344C88.3073 21.3802 89.2513 22.7279 89.9023 24.2773C90.5664 25.8268 90.8984 27.487 90.8984 29.2578C90.8984 29.4792 90.8919 29.7201 90.8789 29.9805C90.8789 30.2279 90.8659 30.4557 90.8398 30.6641H69.043C69.2904 31.3542 69.6875 31.9857 70.2344 32.5586C70.7943 33.1315 71.4909 33.6263 72.3242 34.043C73.1576 34.4596 74.1211 34.7852 75.2148 35.0195C76.3086 35.2409 77.5195 35.3516 78.8477 35.3516C80.1758 35.3516 81.4974 35.2148 82.8125 34.9414C84.1276 34.6549 85.3841 34.2969 86.582 33.8672L88.5352 38.2812C87.7799 38.6328 87.0117 38.9453 86.2305 39.2188C85.4622 39.4792 84.6549 39.7005 83.8086 39.8828C82.9753 40.0521 82.0964 40.1823 81.1719 40.2734C80.2604 40.3646 79.2969 40.4102 78.2812 40.4102C75.6901 40.4102 73.418 40.0977 71.4648 39.4727C69.5117 38.8477 67.8776 37.9948 66.5625 36.9141C65.2474 35.8333 64.2578 34.5638 63.5938 33.1055C62.9297 31.6471 62.5977 30.0781 62.5977 28.3984ZM84.7656 26.1523C84.5573 25.5143 84.2318 24.9219 83.7891 24.375C83.3594 23.8151 82.819 23.3333 82.168 22.9297C81.5169 22.513 80.7617 22.1875 79.9023 21.9531C79.043 21.7188 78.099 21.6016 77.0703 21.6016C75.9766 21.6016 74.9805 21.7253 74.082 21.9727C73.1836 22.2201 72.3958 22.5521 71.7188 22.9688C71.0417 23.3854 70.4753 23.8672 70.0195 24.4141C69.5768 24.9609 69.2513 25.5404 69.043 26.1523H84.7656ZM96.0352 28.3984C96.0352 26.8359 96.3542 25.3451 96.9922 23.9258C97.6302 22.4935 98.5482 21.2305 99.7461 20.1367C100.944 19.043 102.409 18.1706 104.141 17.5195C105.885 16.8685 107.865 16.543 110.078 16.543C112.279 16.543 114.258 16.875 116.016 17.5391C117.786 18.1901 119.284 19.0885 120.508 20.2344C121.745 21.3802 122.689 22.7279 123.34 24.2773C124.004 25.8268 124.336 27.487 124.336 29.2578C124.336 29.4792 124.329 29.7201 124.316 29.9805C124.316 30.2279 124.303 30.4557 124.277 30.6641H102.48C102.728 31.3542 103.125 31.9857 103.672 32.5586C104.232 33.1315 104.928 33.6263 105.762 34.043C106.595 34.4596 107.559 34.7852 108.652 35.0195C109.746 35.2409 110.957 35.3516 112.285 35.3516C113.613 35.3516 114.935 35.2148 116.25 34.9414C117.565 34.6549 118.822 34.2969 120.02 33.8672L121.973 38.2812C121.217 38.6328 120.449 38.9453 119.668 39.2188C118.9 39.4792 118.092 39.7005 117.246 39.8828C116.413 40.0521 115.534 40.1823 114.609 40.2734C113.698 40.3646 112.734 40.4102 111.719 40.4102C109.128 40.4102 106.855 40.0977 104.902 39.4727C102.949 38.8477 101.315 37.9948 100 36.9141C98.6849 35.8333 97.6953 34.5638 97.0312 33.1055C96.3672 31.6471 96.0352 30.0781 96.0352 28.3984ZM118.203 26.1523C117.995 25.5143 117.669 24.9219 117.227 24.375C116.797 23.8151 116.257 23.3333 115.605 22.9297C114.954 22.513 114.199 22.1875 113.34 21.9531C112.48 21.7188 111.536 21.6016 110.508 21.6016C109.414 21.6016 108.418 21.7253 107.52 21.9727C106.621 22.2201 105.833 22.5521 105.156 22.9688C104.479 23.3854 103.913 23.8672 103.457 24.4141C103.014 24.9609 102.689 25.5404 102.48 26.1523H118.203ZM130.566 16.9531H136.348V18.9062C137.884 18.0339 139.349 17.4219 140.742 17.0703C142.148 16.7188 143.522 16.543 144.863 16.543C146.621 16.543 148.249 16.8034 149.746 17.3242C151.243 17.832 152.539 18.5938 153.633 19.6094C154.727 20.625 155.579 21.8945 156.191 23.418C156.816 24.9284 157.129 26.6797 157.129 28.6719V40H151.367V29.6094C151.367 28.3464 151.185 27.2201 150.82 26.2305C150.469 25.2279 149.954 24.388 149.277 23.7109C148.613 23.0208 147.799 22.5 146.836 22.1484C145.885 21.7839 144.818 21.6016 143.633 21.6016C143.008 21.6016 142.363 21.6667 141.699 21.7969C141.048 21.9271 140.404 22.1159 139.766 22.3633C139.141 22.5977 138.535 22.8971 137.949 23.2617C137.363 23.6133 136.829 24.0169 136.348 24.4727V40H130.566V16.9531ZM179.668 30.918C180.775 31.543 181.895 32.1094 183.027 32.6172C184.173 33.112 185.358 33.5352 186.582 33.8867C187.806 34.2253 189.089 34.4857 190.43 34.668C191.784 34.8503 193.223 34.9414 194.746 34.9414C196.582 34.9414 198.145 34.8242 199.434 34.5898C200.723 34.3424 201.771 34.0104 202.578 33.5938C203.398 33.1641 203.991 32.6562 204.355 32.0703C204.733 31.4844 204.922 30.8464 204.922 30.1562C204.922 29.0495 204.46 28.1771 203.535 27.5391C202.611 26.888 201.185 26.5625 199.258 26.5625C198.411 26.5625 197.52 26.6211 196.582 26.7383C195.645 26.8424 194.694 26.9596 193.73 27.0898C192.78 27.2201 191.836 27.3438 190.898 27.4609C189.974 27.5651 189.102 27.6172 188.281 27.6172C186.914 27.6172 185.599 27.4414 184.336 27.0898C183.086 26.7383 181.973 26.2109 180.996 25.5078C180.033 24.8047 179.264 23.9258 178.691 22.8711C178.118 21.8164 177.832 20.5859 177.832 19.1797C177.832 18.3464 177.943 17.5195 178.164 16.6992C178.398 15.8789 178.763 15.0977 179.258 14.3555C179.766 13.6003 180.417 12.9036 181.211 12.2656C182.005 11.6146 182.962 11.0547 184.082 10.5859C185.215 10.1172 186.517 9.7526 187.988 9.49219C189.473 9.21875 191.159 9.08203 193.047 9.08203C194.414 9.08203 195.788 9.16016 197.168 9.31641C198.548 9.45964 199.889 9.66797 201.191 9.94141C202.507 10.2148 203.77 10.5469 204.98 10.9375C206.191 11.3151 207.318 11.7383 208.359 12.207L205.645 17.207C204.785 16.8294 203.861 16.4844 202.871 16.1719C201.882 15.8464 200.846 15.5664 199.766 15.332C198.685 15.0977 197.565 14.9154 196.406 14.7852C195.26 14.6419 194.089 14.5703 192.891 14.5703C191.185 14.5703 189.779 14.694 188.672 14.9414C187.578 15.1888 186.706 15.5078 186.055 15.8984C185.404 16.276 184.948 16.7057 184.688 17.1875C184.44 17.6562 184.316 18.125 184.316 18.5938C184.316 19.5052 184.727 20.2539 185.547 20.8398C186.367 21.4128 187.617 21.6992 189.297 21.6992C189.974 21.6992 190.749 21.6536 191.621 21.5625C192.507 21.4583 193.431 21.3477 194.395 21.2305C195.371 21.1133 196.361 21.0091 197.363 20.918C198.379 20.8138 199.362 20.7617 200.312 20.7617C202.109 20.7617 203.698 20.9635 205.078 21.3672C206.471 21.7708 207.637 22.3503 208.574 23.1055C209.512 23.8477 210.221 24.7526 210.703 25.8203C211.185 26.875 211.426 28.0599 211.426 29.375C211.426 31.1328 211.016 32.7018 210.195 34.082C209.388 35.4492 208.229 36.6081 206.719 37.5586C205.221 38.4961 203.411 39.2122 201.289 39.707C199.167 40.1888 196.803 40.4297 194.199 40.4297C192.48 40.4297 190.801 40.319 189.16 40.0977C187.52 39.8893 185.944 39.5898 184.434 39.1992C182.936 38.7956 181.504 38.3203 180.137 37.7734C178.783 37.2135 177.526 36.6016 176.367 35.9375L179.668 30.918ZM216.426 32.7344C216.426 31.6276 216.667 30.6185 217.148 29.707C217.63 28.7956 218.353 28.0143 219.316 27.3633C220.28 26.6992 221.478 26.1914 222.91 25.8398C224.355 25.4753 226.035 25.293 227.949 25.293C229.368 25.293 230.859 25.3971 232.422 25.6055C233.997 25.8138 235.618 26.1328 237.285 26.5625C237.22 25.8333 236.999 25.1628 236.621 24.5508C236.243 23.9258 235.716 23.3919 235.039 22.9492C234.375 22.4935 233.568 22.1419 232.617 21.8945C231.68 21.6471 230.612 21.5234 229.414 21.5234C228.763 21.5234 228.047 21.5625 227.266 21.6406C226.484 21.7188 225.677 21.8359 224.844 21.9922C224.01 22.1484 223.184 22.3438 222.363 22.5781C221.556 22.8125 220.801 23.0924 220.098 23.418L218.34 18.6719C219.212 18.3594 220.143 18.0729 221.133 17.8125C222.135 17.5521 223.158 17.3307 224.199 17.1484C225.241 16.9531 226.283 16.8034 227.324 16.6992C228.366 16.5951 229.375 16.543 230.352 16.543C234.661 16.543 237.865 17.6432 239.961 19.8438C242.057 22.0443 243.105 25.4167 243.105 29.9609V40H237.324V37.832C236.725 38.1836 236.068 38.5156 235.352 38.8281C234.648 39.1406 233.88 39.4141 233.047 39.6484C232.214 39.8828 231.315 40.0651 230.352 40.1953C229.401 40.3385 228.392 40.4102 227.324 40.4102C225.527 40.4102 223.945 40.2148 222.578 39.8242C221.224 39.4336 220.091 38.8932 219.18 38.2031C218.268 37.513 217.578 36.7057 217.109 35.7812C216.654 34.8438 216.426 33.8281 216.426 32.7344ZM222.52 32.5391C222.52 32.9167 222.617 33.2812 222.812 33.6328C223.008 33.9714 223.32 34.2773 223.75 34.5508C224.18 34.8112 224.727 35.026 225.391 35.1953C226.068 35.3516 226.882 35.4297 227.832 35.4297C228.848 35.4297 229.831 35.3385 230.781 35.1562C231.732 34.974 232.617 34.7331 233.438 34.4336C234.258 34.1341 235 33.7891 235.664 33.3984C236.328 33.0078 236.882 32.6042 237.324 32.1875V31.1719C236.439 30.9245 235.56 30.7161 234.688 30.5469C233.828 30.3776 233.001 30.2474 232.207 30.1562C231.426 30.0521 230.684 29.9805 229.98 29.9414C229.29 29.9023 228.685 29.8828 228.164 29.8828C227.083 29.8828 226.185 29.9544 225.469 30.0977C224.753 30.2409 224.173 30.4362 223.73 30.6836C223.288 30.918 222.975 31.1979 222.793 31.5234C222.611 31.849 222.52 32.1875 222.52 32.5391ZM250.918 7.59766H256.699V40H250.918V7.59766ZM263.027 32.7344C263.027 31.6276 263.268 30.6185 263.75 29.707C264.232 28.7956 264.954 28.0143 265.918 27.3633C266.882 26.6992 268.079 26.1914 269.512 25.8398C270.957 25.4753 272.637 25.293 274.551 25.293C275.97 25.293 277.461 25.3971 279.023 25.6055C280.599 25.8138 282.22 26.1328 283.887 26.5625C283.822 25.8333 283.6 25.1628 283.223 24.5508C282.845 23.9258 282.318 23.3919 281.641 22.9492C280.977 22.4935 280.169 22.1419 279.219 21.8945C278.281 21.6471 277.214 21.5234 276.016 21.5234C275.365 21.5234 274.648 21.5625 273.867 21.6406C273.086 21.7188 272.279 21.8359 271.445 21.9922C270.612 22.1484 269.785 22.3438 268.965 22.5781C268.158 22.8125 267.402 23.0924 266.699 23.418L264.941 18.6719C265.814 18.3594 266.745 18.0729 267.734 17.8125C268.737 17.5521 269.759 17.3307 270.801 17.1484C271.842 16.9531 272.884 16.8034 273.926 16.6992C274.967 16.5951 275.977 16.543 276.953 16.543C281.263 16.543 284.466 17.6432 286.562 19.8438C288.659 22.0443 289.707 25.4167 289.707 29.9609V40H283.926V37.832C283.327 38.1836 282.669 38.5156 281.953 38.8281C281.25 39.1406 280.482 39.4141 279.648 39.6484C278.815 39.8828 277.917 40.0651 276.953 40.1953C276.003 40.3385 274.993 40.4102 273.926 40.4102C272.129 40.4102 270.547 40.2148 269.18 39.8242C267.826 39.4336 266.693 38.8932 265.781 38.2031C264.87 37.513 264.18 36.7057 263.711 35.7812C263.255 34.8438 263.027 33.8281 263.027 32.7344ZM269.121 32.5391C269.121 32.9167 269.219 33.2812 269.414 33.6328C269.609 33.9714 269.922 34.2773 270.352 34.5508C270.781 34.8112 271.328 35.026 271.992 35.1953C272.669 35.3516 273.483 35.4297 274.434 35.4297C275.449 35.4297 276.432 35.3385 277.383 35.1562C278.333 34.974 279.219 34.7331 280.039 34.4336C280.859 34.1341 281.602 33.7891 282.266 33.3984C282.93 33.0078 283.483 32.6042 283.926 32.1875V31.1719C283.04 30.9245 282.161 30.7161 281.289 30.5469C280.43 30.3776 279.603 30.2474 278.809 30.1562C278.027 30.0521 277.285 29.9805 276.582 29.9414C275.892 29.9023 275.286 29.8828 274.766 29.8828C273.685 29.8828 272.786 29.9544 272.07 30.0977C271.354 30.2409 270.775 30.4362 270.332 30.6836C269.889 30.918 269.577 31.1979 269.395 31.5234C269.212 31.849 269.121 32.1875 269.121 32.5391ZM297.363 16.9531H303.145V20.2734C304.421 19.3229 305.768 18.5026 307.188 17.8125C308.607 17.1224 310.02 16.5951 311.426 16.2305L313.125 21.5234C310.898 21.7448 308.939 22.2461 307.246 23.0273C305.566 23.7956 304.199 24.8828 303.145 26.2891V40H297.363V16.9531ZM320.195 42.8906C320.794 43.2812 321.445 43.6263 322.148 43.9258C322.852 44.2253 323.581 44.4727 324.336 44.668C325.104 44.8633 325.885 45.0065 326.68 45.0977C327.474 45.2018 328.262 45.2539 329.043 45.2539C331.699 45.2539 333.743 44.681 335.176 43.5352C336.621 42.4023 337.344 40.6966 337.344 38.418V37.6367C336.836 37.9883 336.263 38.3138 335.625 38.6133C335 38.8997 334.323 39.1471 333.594 39.3555C332.878 39.5638 332.116 39.7266 331.309 39.8438C330.514 39.9479 329.707 40 328.887 40C327.129 40 325.553 39.7461 324.16 39.2383C322.78 38.7174 321.608 37.9622 320.645 36.9727C319.694 35.9701 318.965 34.7396 318.457 33.2812C317.949 31.8229 317.695 30.1562 317.695 28.2812V16.9531H323.457V26.6797C323.457 29.4661 323.984 31.5234 325.039 32.8516C326.107 34.1667 327.786 34.8242 330.078 34.8242C331.693 34.8242 333.118 34.5443 334.355 33.9844C335.605 33.4115 336.602 32.6823 337.344 31.7969V16.9531H343.125V37.3633C343.125 39.5638 342.812 41.4714 342.188 43.0859C341.562 44.7135 340.651 46.0612 339.453 47.1289C338.268 48.1966 336.81 48.9909 335.078 49.5117C333.346 50.0456 331.38 50.3125 329.18 50.3125C327.031 50.3125 325.026 50.0846 323.164 49.6289C321.302 49.1732 319.596 48.5547 318.047 47.7734L320.195 42.8906Z" fill="white"/>
</svg>
