<svg width="171" height="23" viewBox="0 0 171 23" fill="none" xmlns="http://www.w3.org/2000/svg">
<path d="M0.123047 9.22656C0.123047 8.15234 0.32487 7.14974 0.728516 6.21875C1.13216 5.28125 1.72135 4.46745 2.49609 3.77734C3.27083 3.08724 4.22135 2.54362 5.34766 2.14648C6.48047 1.74935 7.77604 1.55078 9.23438 1.55078C9.76172 1.55078 10.2891 1.58008 10.8164 1.63867C11.3503 1.69076 11.8743 1.77539 12.3887 1.89258C12.9095 2.00977 13.4141 2.15951 13.9023 2.3418C14.3971 2.51758 14.8659 2.72917 15.3086 2.97656L13.8828 5.32031C13.6159 5.16406 13.3132 5.02409 12.9746 4.90039C12.6361 4.77018 12.2715 4.66276 11.8809 4.57812C11.4967 4.48698 11.0964 4.41862 10.6797 4.37305C10.2695 4.32747 9.85612 4.30469 9.43945 4.30469C8.47591 4.30469 7.61654 4.42839 6.86133 4.67578C6.10612 4.91667 5.4681 5.25846 4.94727 5.70117C4.42643 6.13737 4.0293 6.66146 3.75586 7.27344C3.48242 7.88542 3.3457 8.55599 3.3457 9.28516C3.3457 10.0404 3.48893 10.7337 3.77539 11.3652C4.06185 11.9967 4.46875 12.5404 4.99609 12.9961C5.52344 13.4518 6.16146 13.8099 6.91016 14.0703C7.65885 14.3242 8.49544 14.4512 9.41992 14.4512C10.1556 14.4512 10.8294 14.3698 11.4414 14.207C12.0534 14.0378 12.5872 13.8001 13.043 13.4941C13.4987 13.1882 13.8698 12.8203 14.1562 12.3906C14.4427 11.9544 14.6315 11.4661 14.7227 10.9258H9.39062V8.37695H17.5059V8.38672L17.5156 8.37695C17.6784 9.1582 17.7272 9.91992 17.6621 10.6621C17.6035 11.3978 17.4342 12.0944 17.1543 12.752C16.8809 13.403 16.5033 14.002 16.0215 14.5488C15.5397 15.0957 14.9635 15.5677 14.293 15.9648C13.6224 16.3555 12.8607 16.6615 12.0078 16.8828C11.1549 17.0977 10.2207 17.2051 9.20508 17.2051C7.78581 17.2051 6.51302 16.9967 5.38672 16.5801C4.26693 16.1634 3.31641 15.5938 2.53516 14.8711C1.75391 14.1484 1.15495 13.3021 0.738281 12.332C0.328125 11.362 0.123047 10.3268 0.123047 9.22656ZM20.8066 5.47656H23.6973V7.13672C24.3353 6.66146 25.0091 6.2513 25.7188 5.90625C26.4284 5.5612 27.1348 5.29753 27.8379 5.11523L28.6875 7.76172C27.5742 7.8724 26.5944 8.12305 25.748 8.51367C24.9082 8.89779 24.2246 9.44141 23.6973 10.1445V17H20.8066V5.47656ZM30.2988 11.1992C30.2988 10.418 30.4583 9.67253 30.7773 8.96289C31.0964 8.24674 31.5553 7.61523 32.1543 7.06836C32.7533 6.52148 33.4857 6.08529 34.3516 5.75977C35.224 5.43424 36.2135 5.27148 37.3203 5.27148C38.4206 5.27148 39.4102 5.4375 40.2891 5.76953C41.1745 6.09505 41.9232 6.54427 42.5352 7.11719C43.1536 7.6901 43.6257 8.36393 43.9512 9.13867C44.2832 9.91341 44.4492 10.7435 44.4492 11.6289C44.4492 11.7396 44.446 11.86 44.4395 11.9902C44.4395 12.1139 44.4329 12.2279 44.4199 12.332H33.5215C33.6452 12.6771 33.8438 12.9928 34.1172 13.2793C34.3971 13.5658 34.7454 13.8132 35.1621 14.0215C35.5788 14.2298 36.0605 14.3926 36.6074 14.5098C37.1543 14.6204 37.7598 14.6758 38.4238 14.6758C39.0879 14.6758 39.7487 14.6074 40.4062 14.4707C41.0638 14.3275 41.6921 14.1484 42.291 13.9336L43.2676 16.1406C42.89 16.3164 42.5059 16.4727 42.1152 16.6094C41.7311 16.7396 41.3275 16.8503 40.9043 16.9414C40.4876 17.026 40.0482 17.0911 39.5859 17.1367C39.1302 17.1823 38.6484 17.2051 38.1406 17.2051C36.8451 17.2051 35.709 17.0488 34.7324 16.7363C33.7559 16.4238 32.9388 15.9974 32.2812 15.457C31.6237 14.9167 31.1289 14.2819 30.7969 13.5527C30.4648 12.8236 30.2988 12.0391 30.2988 11.1992ZM41.3828 10.0762C41.2786 9.75716 41.1159 9.46094 40.8945 9.1875C40.6797 8.90755 40.4095 8.66667 40.084 8.46484C39.7585 8.25651 39.3809 8.09375 38.9512 7.97656C38.5215 7.85938 38.0495 7.80078 37.5352 7.80078C36.9883 7.80078 36.4902 7.86263 36.041 7.98633C35.5918 8.11003 35.1979 8.27604 34.8594 8.48438C34.5208 8.69271 34.2376 8.93359 34.0098 9.20703C33.7884 9.48047 33.6257 9.77018 33.5215 10.0762H41.3828ZM47.0176 11.1992C47.0176 10.418 47.1771 9.67253 47.4961 8.96289C47.8151 8.24674 48.2741 7.61523 48.873 7.06836C49.472 6.52148 50.2044 6.08529 51.0703 5.75977C51.9427 5.43424 52.9323 5.27148 54.0391 5.27148C55.1393 5.27148 56.1289 5.4375 57.0078 5.76953C57.8932 6.09505 58.6419 6.54427 59.2539 7.11719C59.8724 7.6901 60.3444 8.36393 60.6699 9.13867C61.002 9.91341 61.168 10.7435 61.168 11.6289C61.168 11.7396 61.1647 11.86 61.1582 11.9902C61.1582 12.1139 61.1517 12.2279 61.1387 12.332H50.2402C50.3639 12.6771 50.5625 12.9928 50.8359 13.2793C51.1159 13.5658 51.4642 13.8132 51.8809 14.0215C52.2975 14.2298 52.7793 14.3926 53.3262 14.5098C53.873 14.6204 54.4785 14.6758 55.1426 14.6758C55.8066 14.6758 56.4674 14.6074 57.125 14.4707C57.7826 14.3275 58.4108 14.1484 59.0098 13.9336L59.9863 16.1406C59.6087 16.3164 59.2246 16.4727 58.834 16.6094C58.4499 16.7396 58.0462 16.8503 57.623 16.9414C57.2064 17.026 56.7669 17.0911 56.3047 17.1367C55.849 17.1823 55.3672 17.2051 54.8594 17.2051C53.5638 17.2051 52.4277 17.0488 51.4512 16.7363C50.4746 16.4238 49.6576 15.9974 49 15.457C48.3424 14.9167 47.8477 14.2819 47.5156 13.5527C47.1836 12.8236 47.0176 12.0391 47.0176 11.1992ZM58.1016 10.0762C57.9974 9.75716 57.8346 9.46094 57.6133 9.1875C57.3984 8.90755 57.1283 8.66667 56.8027 8.46484C56.4772 8.25651 56.0996 8.09375 55.6699 7.97656C55.2402 7.85938 54.7682 7.80078 54.2539 7.80078C53.707 7.80078 53.209 7.86263 52.7598 7.98633C52.3105 8.11003 51.9167 8.27604 51.5781 8.48438C51.2396 8.69271 50.9564 8.93359 50.7285 9.20703C50.5072 9.48047 50.3444 9.77018 50.2402 10.0762H58.1016ZM64.2832 5.47656H67.1738V6.45312C67.9421 6.01693 68.6745 5.71094 69.3711 5.53516C70.0742 5.35938 70.7611 5.27148 71.4316 5.27148C72.3105 5.27148 73.1243 5.40169 73.873 5.66211C74.6217 5.91602 75.2695 6.29688 75.8164 6.80469C76.3633 7.3125 76.7897 7.94727 77.0957 8.70898C77.4082 9.46419 77.5645 10.3398 77.5645 11.3359V17H74.6836V11.8047C74.6836 11.1732 74.5924 10.61 74.4102 10.1152C74.2344 9.61393 73.9772 9.19401 73.6387 8.85547C73.3066 8.51042 72.8997 8.25 72.418 8.07422C71.9427 7.89193 71.4089 7.80078 70.8164 7.80078C70.5039 7.80078 70.1816 7.83333 69.8496 7.89844C69.5241 7.96354 69.2018 8.05794 68.8828 8.18164C68.5703 8.29883 68.2676 8.44857 67.9746 8.63086C67.6816 8.80664 67.4147 9.00846 67.1738 9.23633V17H64.2832V5.47656ZM88.834 12.459C89.3874 12.7715 89.9473 13.0547 90.5137 13.3086C91.0866 13.556 91.679 13.7676 92.291 13.9434C92.903 14.1126 93.5443 14.2428 94.2148 14.334C94.8919 14.4251 95.6113 14.4707 96.373 14.4707C97.291 14.4707 98.0723 14.4121 98.7168 14.2949C99.3613 14.1712 99.8854 14.0052 100.289 13.7969C100.699 13.582 100.995 13.3281 101.178 13.0352C101.367 12.7422 101.461 12.4232 101.461 12.0781C101.461 11.5247 101.23 11.0885 100.768 10.7695C100.305 10.444 99.5924 10.2812 98.6289 10.2812C98.2057 10.2812 97.7598 10.3105 97.291 10.3691C96.8223 10.4212 96.347 10.4798 95.8652 10.5449C95.39 10.61 94.918 10.6719 94.4492 10.7305C93.987 10.7826 93.5508 10.8086 93.1406 10.8086C92.457 10.8086 91.7995 10.7207 91.168 10.5449C90.543 10.3691 89.9863 10.1055 89.498 9.75391C89.0163 9.40234 88.6322 8.96289 88.3457 8.43555C88.0592 7.9082 87.916 7.29297 87.916 6.58984C87.916 6.17318 87.9714 5.75977 88.082 5.34961C88.1992 4.93945 88.3815 4.54883 88.6289 4.17773C88.8828 3.80013 89.2083 3.45182 89.6055 3.13281C90.0026 2.80729 90.4811 2.52734 91.041 2.29297C91.6074 2.05859 92.2585 1.8763 92.9941 1.74609C93.7363 1.60938 94.5794 1.54102 95.5234 1.54102C96.207 1.54102 96.8939 1.58008 97.584 1.6582C98.2741 1.72982 98.9447 1.83398 99.5957 1.9707C100.253 2.10742 100.885 2.27344 101.49 2.46875C102.096 2.65755 102.659 2.86914 103.18 3.10352L101.822 5.60352C101.393 5.41471 100.93 5.24219 100.436 5.08594C99.9408 4.92318 99.4232 4.7832 98.8828 4.66602C98.3424 4.54883 97.7826 4.45768 97.2031 4.39258C96.6302 4.32096 96.0443 4.28516 95.4453 4.28516C94.5924 4.28516 93.8893 4.34701 93.3359 4.4707C92.7891 4.5944 92.3529 4.75391 92.0273 4.94922C91.7018 5.13802 91.474 5.35286 91.3438 5.59375C91.2201 5.82812 91.1582 6.0625 91.1582 6.29688C91.1582 6.7526 91.3633 7.12695 91.7734 7.41992C92.1836 7.70638 92.8086 7.84961 93.6484 7.84961C93.987 7.84961 94.3743 7.82682 94.8105 7.78125C95.2533 7.72917 95.7155 7.67383 96.1973 7.61523C96.6855 7.55664 97.1803 7.50456 97.6816 7.45898C98.1895 7.4069 98.681 7.38086 99.1562 7.38086C100.055 7.38086 100.849 7.48177 101.539 7.68359C102.236 7.88542 102.818 8.17513 103.287 8.55273C103.756 8.92383 104.111 9.3763 104.352 9.91016C104.592 10.4375 104.713 11.0299 104.713 11.6875C104.713 12.5664 104.508 13.3509 104.098 14.041C103.694 14.7246 103.115 15.304 102.359 15.7793C101.611 16.248 100.706 16.6061 99.6445 16.8535C98.5833 17.0944 97.4017 17.2148 96.0996 17.2148C95.2402 17.2148 94.4004 17.1595 93.5801 17.0488C92.7598 16.9447 91.972 16.7949 91.2168 16.5996C90.4681 16.3978 89.752 16.1602 89.0684 15.8867C88.3913 15.6068 87.763 15.3008 87.1836 14.9688L88.834 12.459ZM107.213 13.3672C107.213 12.8138 107.333 12.3092 107.574 11.8535C107.815 11.3978 108.176 11.0072 108.658 10.6816C109.14 10.3496 109.739 10.0957 110.455 9.91992C111.178 9.73763 112.018 9.64648 112.975 9.64648C113.684 9.64648 114.43 9.69857 115.211 9.80273C115.999 9.9069 116.809 10.0664 117.643 10.2812C117.61 9.91667 117.499 9.58138 117.311 9.27539C117.122 8.96289 116.858 8.69596 116.52 8.47461C116.188 8.24674 115.784 8.07096 115.309 7.94727C114.84 7.82357 114.306 7.76172 113.707 7.76172C113.382 7.76172 113.023 7.78125 112.633 7.82031C112.242 7.85938 111.839 7.91797 111.422 7.99609C111.005 8.07422 110.592 8.17188 110.182 8.28906C109.778 8.40625 109.4 8.54622 109.049 8.70898L108.17 6.33594C108.606 6.17969 109.072 6.03646 109.566 5.90625C110.068 5.77604 110.579 5.66536 111.1 5.57422C111.62 5.47656 112.141 5.40169 112.662 5.34961C113.183 5.29753 113.688 5.27148 114.176 5.27148C116.331 5.27148 117.932 5.82161 118.98 6.92188C120.029 8.02214 120.553 9.70833 120.553 11.9805V17H117.662V15.916C117.363 16.0918 117.034 16.2578 116.676 16.4141C116.324 16.5703 115.94 16.707 115.523 16.8242C115.107 16.9414 114.658 17.0326 114.176 17.0977C113.701 17.1693 113.196 17.2051 112.662 17.2051C111.764 17.2051 110.973 17.1074 110.289 16.9121C109.612 16.7168 109.046 16.4466 108.59 16.1016C108.134 15.7565 107.789 15.3529 107.555 14.8906C107.327 14.4219 107.213 13.9141 107.213 13.3672ZM110.26 13.2695C110.26 13.4583 110.309 13.6406 110.406 13.8164C110.504 13.9857 110.66 14.1387 110.875 14.2754C111.09 14.4056 111.363 14.513 111.695 14.5977C112.034 14.6758 112.441 14.7148 112.916 14.7148C113.424 14.7148 113.915 14.6693 114.391 14.5781C114.866 14.487 115.309 14.3665 115.719 14.2168C116.129 14.0671 116.5 13.8945 116.832 13.6992C117.164 13.5039 117.441 13.3021 117.662 13.0938V12.5859C117.219 12.4622 116.78 12.3581 116.344 12.2734C115.914 12.1888 115.501 12.1237 115.104 12.0781C114.713 12.026 114.342 11.9902 113.99 11.9707C113.645 11.9512 113.342 11.9414 113.082 11.9414C112.542 11.9414 112.092 11.9772 111.734 12.0488C111.376 12.1204 111.087 12.2181 110.865 12.3418C110.644 12.459 110.488 12.599 110.396 12.7617C110.305 12.9245 110.26 13.0938 110.26 13.2695ZM124.459 0.798828H127.35V17H124.459V0.798828ZM130.514 13.3672C130.514 12.8138 130.634 12.3092 130.875 11.8535C131.116 11.3978 131.477 11.0072 131.959 10.6816C132.441 10.3496 133.04 10.0957 133.756 9.91992C134.479 9.73763 135.318 9.64648 136.275 9.64648C136.985 9.64648 137.73 9.69857 138.512 9.80273C139.299 9.9069 140.11 10.0664 140.943 10.2812C140.911 9.91667 140.8 9.58138 140.611 9.27539C140.423 8.96289 140.159 8.69596 139.82 8.47461C139.488 8.24674 139.085 8.07096 138.609 7.94727C138.141 7.82357 137.607 7.76172 137.008 7.76172C136.682 7.76172 136.324 7.78125 135.934 7.82031C135.543 7.85938 135.139 7.91797 134.723 7.99609C134.306 8.07422 133.893 8.17188 133.482 8.28906C133.079 8.40625 132.701 8.54622 132.35 8.70898L131.471 6.33594C131.907 6.17969 132.372 6.03646 132.867 5.90625C133.368 5.77604 133.88 5.66536 134.4 5.57422C134.921 5.47656 135.442 5.40169 135.963 5.34961C136.484 5.29753 136.988 5.27148 137.477 5.27148C139.632 5.27148 141.233 5.82161 142.281 6.92188C143.329 8.02214 143.854 9.70833 143.854 11.9805V17H140.963V15.916C140.663 16.0918 140.335 16.2578 139.977 16.4141C139.625 16.5703 139.241 16.707 138.824 16.8242C138.408 16.9414 137.958 17.0326 137.477 17.0977C137.001 17.1693 136.497 17.2051 135.963 17.2051C135.064 17.2051 134.273 17.1074 133.59 16.9121C132.913 16.7168 132.346 16.4466 131.891 16.1016C131.435 15.7565 131.09 15.3529 130.855 14.8906C130.628 14.4219 130.514 13.9141 130.514 13.3672ZM133.561 13.2695C133.561 13.4583 133.609 13.6406 133.707 13.8164C133.805 13.9857 133.961 14.1387 134.176 14.2754C134.391 14.4056 134.664 14.513 134.996 14.5977C135.335 14.6758 135.742 14.7148 136.217 14.7148C136.725 14.7148 137.216 14.6693 137.691 14.5781C138.167 14.487 138.609 14.3665 139.02 14.2168C139.43 14.0671 139.801 13.8945 140.133 13.6992C140.465 13.5039 140.742 13.3021 140.963 13.0938V12.5859C140.52 12.4622 140.081 12.3581 139.645 12.2734C139.215 12.1888 138.801 12.1237 138.404 12.0781C138.014 12.026 137.643 11.9902 137.291 11.9707C136.946 11.9512 136.643 11.9414 136.383 11.9414C135.842 11.9414 135.393 11.9772 135.035 12.0488C134.677 12.1204 134.387 12.2181 134.166 12.3418C133.945 12.459 133.788 12.599 133.697 12.7617C133.606 12.9245 133.561 13.0938 133.561 13.2695ZM147.682 5.47656H150.572V7.13672C151.21 6.66146 151.884 6.2513 152.594 5.90625C153.303 5.5612 154.01 5.29753 154.713 5.11523L155.562 7.76172C154.449 7.8724 153.469 8.12305 152.623 8.51367C151.783 8.89779 151.1 9.44141 150.572 10.1445V17H147.682V5.47656ZM159.098 18.4453C159.397 18.6406 159.723 18.8132 160.074 18.9629C160.426 19.1126 160.79 19.2363 161.168 19.334C161.552 19.4316 161.943 19.5033 162.34 19.5488C162.737 19.6009 163.131 19.627 163.521 19.627C164.85 19.627 165.872 19.3405 166.588 18.7676C167.311 18.2012 167.672 17.3483 167.672 16.209V15.8184C167.418 15.9941 167.132 16.1569 166.812 16.3066C166.5 16.4499 166.161 16.5736 165.797 16.6777C165.439 16.7819 165.058 16.8633 164.654 16.9219C164.257 16.974 163.854 17 163.443 17C162.564 17 161.777 16.873 161.08 16.6191C160.39 16.3587 159.804 15.9811 159.322 15.4863C158.847 14.985 158.482 14.3698 158.229 13.6406C157.975 12.9115 157.848 12.0781 157.848 11.1406V5.47656H160.729V10.3398C160.729 11.7331 160.992 12.7617 161.52 13.4258C162.053 14.0833 162.893 14.4121 164.039 14.4121C164.846 14.4121 165.559 14.2721 166.178 13.9922C166.803 13.7057 167.301 13.3411 167.672 12.8984V5.47656H170.562V15.6816C170.562 16.7819 170.406 17.7357 170.094 18.543C169.781 19.3568 169.326 20.0306 168.727 20.5645C168.134 21.0983 167.405 21.4954 166.539 21.7559C165.673 22.0228 164.69 22.1562 163.59 22.1562C162.516 22.1562 161.513 22.0423 160.582 21.8145C159.651 21.5866 158.798 21.2773 158.023 20.8867L159.098 18.4453Z" fill="#01D3AC"/>
</svg>
